<svg xmlns="http://www.w3.org/2000/svg" xmlns:xlink="http://www.w3.org/1999/xlink" viewBox="0 0 66.6 64.01"><defs><style>.cls-1{fill:url(#linear-gradient);}.cls-2{fill:url(#linear-gradient-2);}</style><linearGradient id="linear-gradient" x1="8.52" y1="10.24" x2="53.77" y2="55.49" gradientUnits="userSpaceOnUse"><stop offset="0" stop-color="#4591c0"/><stop offset="0.69" stop-color="#76c3ec"/><stop offset="1" stop-color="#499acc"/></linearGradient><linearGradient id="linear-gradient-2" x1="31.15" y1="7.53" x2="52.48" y2="28.86" xlink:href="#linear-gradient"/></defs><title>Asset 3</title><g id="Layer_2" data-name="Layer 2"><g id="Layer_1-2" data-name="Layer 1"><path class="cls-1" d="M64,32a31.4,31.4,0,0,1-7.85,21,30.81,30.81,0,0,1-19.6,10.68A31.17,31.17,0,0,1,11,56.08,30.61,30.61,0,0,1,.71,38.57,31.13,31.13,0,0,1,6.48,12.78,31,31,0,0,1,25.4.73,30.74,30.74,0,0,1,43.12,2.05a3.51,3.51,0,0,1,2.09,4.52,3.63,3.63,0,0,1-4.62,2.12C31.6,5.67,23.32,7,16,13.07a23.89,23.89,0,0,0-8.77,17A23.61,23.61,0,0,0,9.65,42.87a24.29,24.29,0,0,0,15.42,13,23.73,23.73,0,0,0,18.2-1.73A24.34,24.34,0,0,0,56.56,35.86,24.27,24.27,0,0,0,55.2,23.05,3.37,3.37,0,0,1,56,19.28a3.32,3.32,0,0,1,3.69-.87,3.45,3.45,0,0,1,2.13,2.06,31.06,31.06,0,0,1,2,8.39A30.51,30.51,0,0,1,64,32Z"/><path class="cls-2" d="M17.38,24.06a12.42,12.42,0,0,1,8,3,34.58,34.58,0,0,1,5.26,5.49c.46.57.47.57.8-.07A64.86,64.86,0,0,1,41.55,18,71.35,71.35,0,0,1,60.6,3.39c1.48-.79,3-1.49,4.54-2.19A3.2,3.2,0,0,1,65.53,1a.75.75,0,0,1,1,.35.71.71,0,0,1-.26,1L64,4.14a95.88,95.88,0,0,0-23.58,28,121.89,121.89,0,0,0-7.19,15.52c-.08.19-.16.37-.23.55a1.33,1.33,0,0,1-1.27.86,1.36,1.36,0,0,1-1.31-.79c-.73-1.45-1.46-2.9-2.21-4.34a57.9,57.9,0,0,0-6.49-10.36A32.46,32.46,0,0,0,14.54,27l-.45-.3a1.23,1.23,0,0,1,.42-2.25A12.57,12.57,0,0,1,17.38,24.06Z"/></g></g></svg>