<svg xmlns="http://www.w3.org/2000/svg" xmlns:xlink="http://www.w3.org/1999/xlink" viewBox="0 0 260.26 64.01"><defs><style>.cls-1{fill:url(#linear-gradient);}.cls-2{fill:url(#linear-gradient-2);}.cls-3{fill:#e6f3ff;}</style><linearGradient id="linear-gradient" x1="8.52" y1="10.24" x2="53.77" y2="55.49" gradientUnits="userSpaceOnUse"><stop offset="0" stop-color="#a5c1e4"/><stop offset="0.24" stop-color="#a5c1e4"/><stop offset="0.46" stop-color="#4ea7dd"/><stop offset="0.76" stop-color="#c1e8fa"/><stop offset="1" stop-color="#4ea7dd"/></linearGradient><linearGradient id="linear-gradient-2" x1="31.15" y1="7.53" x2="52.48" y2="28.86" xlink:href="#linear-gradient"/></defs><title>Asset 4</title><g id="Layer_2" data-name="Layer 2"><g id="Layer_1-2" data-name="Layer 1"><path class="cls-1" d="M64,32a31.4,31.4,0,0,1-7.85,21,30.81,30.81,0,0,1-19.6,10.68A31.17,31.17,0,0,1,11,56.08,30.61,30.61,0,0,1,.71,38.57,31.13,31.13,0,0,1,6.48,12.78,31,31,0,0,1,25.4.73,30.74,30.74,0,0,1,43.12,2.05a3.51,3.51,0,0,1,2.09,4.52,3.63,3.63,0,0,1-4.62,2.12C31.6,5.67,23.32,7,16,13.07a23.89,23.89,0,0,0-8.77,17A23.61,23.61,0,0,0,9.65,42.87a24.29,24.29,0,0,0,15.42,13,23.73,23.73,0,0,0,18.2-1.73A24.34,24.34,0,0,0,56.56,35.86,24.27,24.27,0,0,0,55.2,23.05,3.37,3.37,0,0,1,56,19.28a3.32,3.32,0,0,1,3.69-.87,3.45,3.45,0,0,1,2.13,2.06,31.06,31.06,0,0,1,2,8.39A30.51,30.51,0,0,1,64,32Z"/><path class="cls-2" d="M17.38,24.06a12.42,12.42,0,0,1,8,3,34.58,34.58,0,0,1,5.26,5.49c.46.57.47.57.8-.07A64.86,64.86,0,0,1,41.55,18,71.35,71.35,0,0,1,60.6,3.39c1.48-.79,3-1.49,4.54-2.19A3.2,3.2,0,0,1,65.53,1a.75.75,0,0,1,1,.35.71.71,0,0,1-.26,1L64,4.14a95.88,95.88,0,0,0-23.58,28,121.89,121.89,0,0,0-7.19,15.52c-.08.19-.16.37-.23.55a1.33,1.33,0,0,1-1.27.86,1.36,1.36,0,0,1-1.31-.79c-.73-1.45-1.46-2.9-2.21-4.34a57.9,57.9,0,0,0-6.49-10.36A32.46,32.46,0,0,0,14.54,27l-.45-.3a1.23,1.23,0,0,1,.42-2.25A12.57,12.57,0,0,1,17.38,24.06Z"/><path class="cls-3" d="M69,19.18h0a2.35,2.35,0,0,1,2.35-2.35H92.41a2.36,2.36,0,0,1,2.36,2.35h0a2.36,2.36,0,0,1-2.36,2.35H71.35A2.35,2.35,0,0,1,69,19.18ZM79.31,49.65V16.83h5.15V49.65A2.36,2.36,0,0,1,82.11,52h-.45A2.36,2.36,0,0,1,79.31,49.65Z"/><path class="cls-3" d="M96.61,49l8.8-30.47a2.35,2.35,0,0,1,2.26-1.7h3.64a2.35,2.35,0,0,1,2.26,1.7L122.37,49a2.35,2.35,0,0,1-2.26,3h-.27a2.36,2.36,0,0,1-2.27-1.75l-7.86-29.17h-.44l-7.86,29.17A2.36,2.36,0,0,1,99.14,52h-.27A2.35,2.35,0,0,1,96.61,49Zm3.84-5.57v-4.7h17.84v4.7Z"/><path class="cls-3" d="M136,52.5a31,31,0,0,1-5.61-.48,24.68,24.68,0,0,1-3-.76,2.36,2.36,0,0,1-1.59-2.54l0-.14a2.37,2.37,0,0,1,3.07-2q1.31.44,2.58.75a21.44,21.44,0,0,0,4.94.6,8.87,8.87,0,0,0,5.16-1.21A4.25,4.25,0,0,0,143.18,43,4.82,4.82,0,0,0,140,38.43l-6.09-2.78a15.29,15.29,0,0,1-5.52-3.93A8.66,8.66,0,0,1,126.43,26a9.15,9.15,0,0,1,2.78-7.13q2.78-2.53,7.85-2.53a17.61,17.61,0,0,1,6.27,1A14.47,14.47,0,0,1,146.42,19a2.37,2.37,0,0,1,.34,3.6l-.17.16a2.35,2.35,0,0,1-3,.34A14.67,14.67,0,0,0,141,21.69a10.1,10.1,0,0,0-3.95-.8,5.83,5.83,0,0,0-4,1.22,4.55,4.55,0,0,0-1.4,3.63,4.16,4.16,0,0,0,.91,2.79,7.87,7.87,0,0,0,2.7,1.92l5.16,2.43A17.83,17.83,0,0,1,146.45,37a8.58,8.58,0,0,1,2,5.92c0,3.19-1,5.58-3.11,7.17S140.16,52.5,136,52.5Z"/><path class="cls-3" d="M153,49.65V19.18a2.35,2.35,0,0,1,2.35-2.35h.45a2.35,2.35,0,0,1,2.35,2.35V49.65A2.36,2.36,0,0,1,155.75,52h-.45A2.36,2.36,0,0,1,153,49.65Zm3.12-8.84.45-4.91a13,13,0,0,0,6.59-1.6A13.45,13.45,0,0,0,167.68,30a19.89,19.89,0,0,0,2.67-6.12,27.09,27.09,0,0,0,.8-4.86,2.35,2.35,0,0,1,2.34-2.18h.39a2.36,2.36,0,0,1,2.36,2.53A29.8,29.8,0,0,1,175,25.82a24.59,24.59,0,0,1-4,7.69,18.85,18.85,0,0,1-6.37,5.34A18.23,18.23,0,0,1,156.07,40.81Zm15.3,9.93-8.26-15.88,4.46-2.53,8.61,16.22A2.35,2.35,0,0,1,174.11,52h-.66A2.34,2.34,0,0,1,171.37,50.74Z"/><path class="cls-3" d="M181.61,19.18h0A2.35,2.35,0,0,1,184,16.83h16.7A2.36,2.36,0,0,1,203,19.18h0a2.36,2.36,0,0,1-2.36,2.35H184A2.35,2.35,0,0,1,181.61,19.18Zm0,30.47h0A2.35,2.35,0,0,1,184,47.3h16.7A2.36,2.36,0,0,1,203,49.65h0A2.36,2.36,0,0,1,200.66,52H184A2.36,2.36,0,0,1,181.61,49.65Zm8.1,2.36V16.83h5.16V52Z"/><path class="cls-3" d="M208.28,49.65V18.79a2,2,0,0,1,2-2h3.19V49.65A2.36,2.36,0,0,1,211.08,52h-.45A2.36,2.36,0,0,1,208.28,49.65Zm0-28.12V18.79a2,2,0,0,1,2-2h19a2.35,2.35,0,0,1,2.35,2.35h0a2.35,2.35,0,0,1-2.35,2.35Zm0,16.7V33.52h16.47a2.36,2.36,0,0,1,2.35,2.36h0a2.35,2.35,0,0,1-2.35,2.35Z"/><path class="cls-3" d="M245.42,40.26l-10.36-20a2.35,2.35,0,0,1,2.09-3.43h.11a2.36,2.36,0,0,1,2.12,1.32l7.93,16.27h.44l7.93-16.27a2.35,2.35,0,0,1,2.12-1.32h.1A2.34,2.34,0,0,1,260,20.26l-10.36,20ZM245,49.65v-15h5.16v15A2.36,2.36,0,0,1,247.75,52h-.44A2.36,2.36,0,0,1,245,49.65Z"/></g></g></svg>